<svg xmlns="http://www.w3.org/2000/svg" width="360.77" height="101.25" viewBox="0 0 360.77 101.25"><defs><style>.cls-1{fill:#fff;}.cls-2{fill:#0e3ca5;}.cls-3{fill:#5493f7;}</style></defs><title>inverted_logo</title><g id="Layer_2" data-name="Layer 2"><g id="Layer_6" data-name="Layer 6"><path class="cls-1" d="M261.55,31.14c-.39,0-1.18-.11-2.85-.11a20,20,0,0,0-4.06.4c-5.23,1-8.58,3.86-11.46,6.87V32.35H226.77V85.49h16.41V63.29a55.31,55.31,0,0,1,.43-7.22,13.86,13.86,0,0,1,1.92-5.63,9.75,9.75,0,0,1,4.21-3.66,17.33,17.33,0,0,1,7.43-1.31,22.74,22.74,0,0,1,3.56.27,25.52,25.52,0,0,1,3.44.82v-15A14.6,14.6,0,0,0,261.55,31.14Z"/><path class="cls-1" d="M305.42,31.14c-.38,0-1.17-.11-2.84-.11a20.06,20.06,0,0,0-4.07.4c-5.23,1-8.57,3.86-11.46,6.87V32.35h-16.4V85.49h16.4V63.29a53.53,53.53,0,0,1,.44-7.22,14,14,0,0,1,1.91-5.63,9.81,9.81,0,0,1,4.21-3.66A17.33,17.33,0,0,1,301,45.47a22.65,22.65,0,0,1,3.56.27,24.82,24.82,0,0,1,3.44.82v-15A14.6,14.6,0,0,0,305.42,31.14Z"/><path class="cls-1" d="M132.51,30.16H110.42V15.07h61.24V30.16H149.57V85.49H132.51Z"/><path class="cls-1" d="M217.74,76.3a26,26,0,0,1-10,7.76,29.68,29.68,0,0,1-12.46,2.74,33.54,33.54,0,0,1-11.54-2,27.72,27.72,0,0,1-9.4-5.63,26.47,26.47,0,0,1-6.29-8.8,27.89,27.89,0,0,1-2.3-11.48,27.82,27.82,0,0,1,2.3-11.48,26.51,26.51,0,0,1,6.29-8.81,27.72,27.72,0,0,1,9.4-5.63,33.54,33.54,0,0,1,11.54-2,26.27,26.27,0,0,1,10.33,2,21.48,21.48,0,0,1,7.87,5.63,25.8,25.8,0,0,1,5,8.81,35.61,35.61,0,0,1,1.75,11.48v5.14h-38a12.89,12.89,0,0,0,4.26,7.48,12.06,12.06,0,0,0,8.09,2.79,12.36,12.36,0,0,0,6.84-1.8,18.31,18.31,0,0,0,4.86-4.65ZM203.86,52.9a9.5,9.5,0,0,0-2.74-7.11,9.74,9.74,0,0,0-7.32-2.95A12,12,0,0,0,185.43,46a10,10,0,0,0-2.3,3.17,10.49,10.49,0,0,0-.92,3.77Z"/><circle class="cls-1" cx="50.62" cy="50.62" r="50.62"/><path class="cls-1" d="M309.77,70.25v-.2c0-11.81,9.2-17.26,22.34-17.26A40.31,40.31,0,0,1,345.66,55V54.1c0-6.35-4-9.88-11.89-9.88a41.83,41.83,0,0,0-15.32,2.92l-3.93-11.7A49.92,49.92,0,0,1,336,31.1c8.59,0,14.79,2.22,18.72,6,4.14,4,6,10,6,17.26V85.79H345.56V79.94c-3.83,4.13-9.11,6.86-16.76,6.86C318.35,86.8,309.77,81,309.77,70.25Zm36.1-3.53v-.9A2.71,2.71,0,0,0,344,63.27,25.85,25.85,0,0,0,335.83,62C329.11,62,325,64.6,325,69.44v.2c0,4.14,3.52,6.56,8.59,6.56C340.9,76.2,345.87,72.27,345.87,66.72Z"/><g id="Symbol"><path class="cls-2" d="M44.08,76.35c2.57,9.47,11.76,16.71,16.4,16.41.16,0,17.6-3.26,27.15-19.22,7.43-12.41,4.9-24.4-5.2-24.66-3.64.26-43.23,9.41-38.35,27.47"/><path class="cls-2" d="M81.49,15.47h0A44.36,44.36,0,0,0,34.74,8.71a25.29,25.29,0,0,0-2.81,1.38c-.62.33-1.25.66-1.85,1l.15,0a20.18,20.18,0,0,0-4.68,4.43C12.81,32.4,55.49,44.63,78.3,44.67,88.79,52.2,91.74,23.46,81.49,15.47Z"/><path class="cls-3" d="M37.31,15.82c-5.86,8.81-25.39,15-28.6,14.05l0,0c.13-.27.27-.53.4-.8a47.38,47.38,0,0,1,3.8-6.12A47,47,0,0,1,23,12.79a44.58,44.58,0,0,1,3.73-2.47A13.65,13.65,0,0,1,33.2,8.6c8.7.16,4.16,7.14,4.11,7.22"/><path class="cls-3" d="M32.5,78.08c.42,2.77,0,13.7-.57,14.63-.49,0-1.51.09-4.45-1.56A44.25,44.25,0,0,1,23,88.25a46.77,46.77,0,0,1-5.45-4.67,47.69,47.69,0,0,1-4.68-5.45A46.82,46.82,0,0,1,9.09,72a46.08,46.08,0,0,1-2.83-6.7,45.61,45.61,0,0,1-1.77-7.2,46.71,46.71,0,0,1,0-15.17,45.49,45.49,0,0,1,1.77-7.19c.15-.47.32-.94.49-1.4h0c3.37,4.48,7.27,8.54,10.59,13.07,3.15,4.31,7.5,11.33,8.38,12.83,5.49,9.33,6.36,15.08,6.78,17.84"/><path class="cls-3" d="M97.37,50.52a46.65,46.65,0,0,1-3.25,17.17c-5.51,5.92-42.63-8.65-43-8.81-5.07-2.22-20.53-9-21.92-19.63-2-15.3,29-26,42.67-26.37,1.64,0,6.62.08,9.52,2.44a46.61,46.61,0,0,1,16,35.2"/><path class="cls-3" d="M72.24,92c-4,1.89-8.5.52-7.34-3.42C67.12,81,86.53,73.23,90.81,72.81c.53-.06.76.3.52.72A47.22,47.22,0,0,1,72.24,92"/></g></g></g></svg>