<svg xmlns="http://www.w3.org/2000/svg" xmlns:xlink="http://www.w3.org/1999/xlink" viewBox="0 0 239.15 34"><defs><style>.cls-1,.cls-6{fill:#fff;}.cls-1,.cls-2{fill-rule:evenodd;}.cls-2{fill:#5493f7;}.cls-3{mask:url(#mask);}.cls-4{mask:url(#mask-2);}.cls-5{mask:url(#mask-3);}</style><mask id="mask" x="9.5" y="2.96" width="26.74" height="21.75" maskUnits="userSpaceOnUse"><g id="b"><path id="a" class="cls-1" d="M9.5,3H36.23V24.71H9.5Z"/></g></mask><mask id="mask-2" x="45.73" y="4.11" width="24.53" height="26.81" maskUnits="userSpaceOnUse"><g id="d"><path id="c" class="cls-1" d="M45.73,4.11H70.26v26.8H45.73Z"/></g></mask><mask id="mask-3" x="67.7" y="10.37" width="21.6" height="21.55" maskUnits="userSpaceOnUse"><g id="f"><path id="e" class="cls-1" d="M67.7,10.37H89.3V31.92H67.7Z"/></g></mask></defs><title>Asset 1</title><g id="Layer_2" data-name="Layer 2"><g id="Layer_1-2" data-name="Layer 1"><path class="cls-2" d="M8.75,4C3.26,11.51,24.35,16.77,31.81,15.5c1.31-.22,5.29-.9,2.57-6.34C34,8.4,33.5,7.66,33,6.93s-1.18-1.49-1.81-2.2l-.55-.55C29.22,2.85,26.19.09,18.43,0c-4.6.1-7.86,1.43-9.68,4m7.1,23.69c1,3.67,4.46,6.47,6.22,6.36a16.5,16.5,0,0,0,10.3-7.45c2.82-4.81,1.86-9.45-2-9.55C29,17.1,14,20.65,15.85,27.64"/><path class="cls-1" d="M12.59,4c-2.31,3.23-10,5.51-11.27,5.16v0l.16-.29A16,16,0,0,1,3,6.56a17.38,17.38,0,0,1,1.84-2A18.36,18.36,0,0,1,8.43,1.94,5.74,5.74,0,0,1,11,1.31c3.43.06,1.64,2.62,1.62,2.65M11.7,28.43A24.05,24.05,0,0,1,11.47,34a3.39,3.39,0,0,1-1.82-.6A18.51,18.51,0,0,1,5.6,30.52a17.91,17.91,0,0,1-1.91-2.08,17.53,17.53,0,0,1-1.56-2.33A18.3,18.3,0,0,1,1,23.56a16.87,16.87,0,0,1-1-5.63,16.66,16.66,0,0,1,1.18-6.16c1.37,1.71,3,3.25,4.32,5s3.07,4.31,3.43,4.89a16.76,16.76,0,0,1,2.77,6.79"/><g class="cls-3"><path class="cls-1" d="M36.23,17.52A17.93,17.93,0,0,1,35,24.17c-2.16,2.29-16.7-3.35-16.84-3.41-2-.86-8-3.48-8.58-7.6C8.75,7.24,20.9,3.12,26.25,3A6.55,6.55,0,0,1,30,3.9a18,18,0,0,1,6.26,13.62"/></g><path class="cls-1" d="M26.49,33.67c-1.58.74-3.33.2-2.88-1.34.87-3,8.49-6,10.17-6.18l.2.05a.49.49,0,0,1,0,.24,18.39,18.39,0,0,1-7.5,7.23"/><path class="cls-1" d="M105.7,9.51c-.15,0-.46,0-1.11,0a8.85,8.85,0,0,0-1.59.15,8.12,8.12,0,0,0-4.46,2.72V10H92.15V31h6.39V22.23a21,21,0,0,1,.17-2.85,5.6,5.6,0,0,1,.75-2.24,3.81,3.81,0,0,1,1.64-1.45,6.76,6.76,0,0,1,2.89-.52,8.58,8.58,0,0,1,1.38.11,8.72,8.72,0,0,1,1.34.33V9.68a5,5,0,0,0-1-.17m17.29,0c-.15,0-.46,0-1.11,0a8.85,8.85,0,0,0-1.59.15,8.15,8.15,0,0,0-4.46,2.72V10h-6.38V31h6.38V22.23a20.93,20.93,0,0,1,.18-2.85,5.59,5.59,0,0,1,.74-2.24,3.87,3.87,0,0,1,1.64-1.45,6.76,6.76,0,0,1,2.89-.52,8.8,8.8,0,0,1,1.39.11,9,9,0,0,1,1.34.33V9.68a5.17,5.17,0,0,0-1-.17"/><g class="cls-4"><path class="cls-1" d="M54.58,9.85H45.73V4.11H70.26V9.85H61.41V30.91H54.58Z"/></g><g class="cls-5"><path class="cls-1" d="M82.8,18.81a3.65,3.65,0,0,0-1.08-2.75,3.93,3.93,0,0,0-2.9-1.14,4.86,4.86,0,0,0-3.32,1.2,3.75,3.75,0,0,0-.91,1.22,3.9,3.9,0,0,0-.38,1.46H82.8Zm5.5,9.05a10.54,10.54,0,0,1-3.94,3,12.13,12.13,0,0,1-5,1.05,13.74,13.74,0,0,1-4.57-.76A11,11,0,0,1,71.1,29a10.25,10.25,0,0,1-2.49-3.41,10.6,10.6,0,0,1-.91-4.43,10.29,10.29,0,0,1,3.4-7.84,11.1,11.1,0,0,1,3.74-2.18,13.48,13.48,0,0,1,4.57-.75,10.65,10.65,0,0,1,4.09.75,8.76,8.76,0,0,1,3.13,2.18,9.91,9.91,0,0,1,2,3.41,13.68,13.68,0,0,1,.69,4.43v2H74.21A5.07,5.07,0,0,0,75.9,26a5.43,5.43,0,0,0,5.92.38,7.51,7.51,0,0,0,1.93-1.8Z"/></g><path class="cls-1" d="M139.09,24.16v-.35a1.05,1.05,0,0,0-.73-1,10.31,10.31,0,0,0-3.22-.5c-2.64,0-4.27,1-4.27,2.89v.08c0,1.6,1.39,2.53,3.37,2.53,2.9,0,4.84-1.52,4.84-3.67m-14.16,1.37v-.09c0-4.57,3.61-6.67,8.77-6.67a16.07,16.07,0,0,1,5.33.86v-.35c0-2.45-1.59-3.83-4.67-3.83a16.61,16.61,0,0,0-6,1.13l-1.55-4.53a20,20,0,0,1,8.45-1.68c3.37,0,5.8.86,7.35,2.34s2.35,3.87,2.35,6.68V31.53h-6V29.26a8.53,8.53,0,0,1-6.59,2.66c-4.1,0-7.47-2.25-7.47-6.39"/><path class="cls-6" d="M178.55,23.66a11.52,11.52,0,0,1-2.74,3.93,13.34,13.34,0,0,1-4.23,2.61,14.94,14.94,0,0,1-5.4.95h-8.71V6.48h8.71a15.16,15.16,0,0,1,5.4.93A13.12,13.12,0,0,1,175.81,10a11.53,11.53,0,0,1,2.74,3.91,12.17,12.17,0,0,1,1,4.87A12.25,12.25,0,0,1,178.55,23.66ZM175.84,15a9.13,9.13,0,0,0-2.08-3.12,9.49,9.49,0,0,0-3.28-2.08,11.59,11.59,0,0,0-4.3-.76H160.3V28.58h5.88a12,12,0,0,0,4.3-.74,9.33,9.33,0,0,0,3.28-2.07,9.16,9.16,0,0,0,2.08-3.08,9.84,9.84,0,0,0,.74-3.84A10.06,10.06,0,0,0,175.84,15Z"/><path class="cls-6" d="M201.73,25.7a9.5,9.5,0,0,1-2,3.05,9.35,9.35,0,0,1-3.09,2.06,9.72,9.72,0,0,1-3.87.76,9.64,9.64,0,0,1-6.88-2.8,9.09,9.09,0,0,1-2-3,9.74,9.74,0,0,1,0-7.35,9.26,9.26,0,0,1,2-3.05,9.43,9.43,0,0,1,3.06-2.06,10.26,10.26,0,0,1,7.75,0,9.54,9.54,0,0,1,3.06,2,9.18,9.18,0,0,1,2,3,9.59,9.59,0,0,1,0,7.34Zm-2.61-6.4A7,7,0,0,0,197.66,17a6.82,6.82,0,0,0-2.18-1.53,6.54,6.54,0,0,0-2.73-.56,6.93,6.93,0,0,0-2.76.54A6.2,6.2,0,0,0,187.86,17a7.18,7.18,0,0,0-1.38,2.25A7.44,7.44,0,0,0,186,22a7.55,7.55,0,0,0,.52,2.78A6.89,6.89,0,0,0,187.93,27a6.82,6.82,0,0,0,2.17,1.51,6.46,6.46,0,0,0,2.72.56,6.86,6.86,0,0,0,2.76-.54,6.47,6.47,0,0,0,2.16-1.49,6.94,6.94,0,0,0,1.39-2.24,7.36,7.36,0,0,0,.51-2.76A7.5,7.5,0,0,0,199.12,19.3Z"/><path class="cls-6" d="M219.45,30.57a8.84,8.84,0,0,1-4.4,1,9.28,9.28,0,0,1-3.78-.76,9.42,9.42,0,0,1-5.72-8.72,9.66,9.66,0,0,1,2.71-6.73,9.4,9.4,0,0,1,6.79-2.82,10.5,10.5,0,0,1,2.41.25,8.79,8.79,0,0,1,3.62,1.72,15.55,15.55,0,0,1,1.4,1.27l-1.83,1.91a12.72,12.72,0,0,0-2.42-1.94,6,6,0,0,0-3.21-.81,6.4,6.4,0,0,0-2.62.54A6.52,6.52,0,0,0,210.29,17a7.05,7.05,0,0,0-1.4,2.25,7.44,7.44,0,0,0-.51,2.76,7.55,7.55,0,0,0,.52,2.78,7.2,7.2,0,0,0,1.44,2.27,6.64,6.64,0,0,0,2.15,1.51,6.73,6.73,0,0,0,2.71.54,6.33,6.33,0,0,0,3.17-.77,10.58,10.58,0,0,0,2.49-1.94L222.62,28A12.52,12.52,0,0,1,219.45,30.57Z"/><path class="cls-6" d="M238.63,28.35a5.15,5.15,0,0,1-1.4,1.71,6.21,6.21,0,0,1-2.08,1.07,8.65,8.65,0,0,1-2.6.37,12.11,12.11,0,0,1-4.05-.72,12.49,12.49,0,0,1-3.62-2l1.4-1.94a12,12,0,0,0,3.14,1.73,9.41,9.41,0,0,0,3.28.6,4.6,4.6,0,0,0,2.76-.78,2.47,2.47,0,0,0,1.07-2.11v-.07a1.85,1.85,0,0,0-.37-1.16,3.4,3.4,0,0,0-1-.87,9,9,0,0,0-1.49-.65c-.57-.19-1.15-.36-1.74-.53s-1.44-.44-2.17-.68a8.76,8.76,0,0,1-2-.94A4.62,4.62,0,0,1,226.33,20a3.76,3.76,0,0,1-.55-2.11v-.07A4.72,4.72,0,0,1,227.55,14a6,6,0,0,1,2-1.06,8.23,8.23,0,0,1,2.53-.37,11.58,11.58,0,0,1,3.48.55,13.09,13.09,0,0,1,3.19,1.46l-1.26,2a12.2,12.2,0,0,0-2.71-1.28A8.59,8.59,0,0,0,232,14.9a4.1,4.1,0,0,0-2.62.76,2.28,2.28,0,0,0-1,1.88v.08a1.66,1.66,0,0,0,.39,1.1,3.47,3.47,0,0,0,1.06.83,9.15,9.15,0,0,0,1.53.64c.57.19,1.17.37,1.79.56s1.43.45,2.13.71a8.26,8.26,0,0,1,1.92,1,4.64,4.64,0,0,1,1.38,1.45,3.87,3.87,0,0,1,.52,2.08V26A4.92,4.92,0,0,1,238.63,28.35Z"/></g></g></svg>