<svg xmlns="http://www.w3.org/2000/svg" xmlns:xlink="http://www.w3.org/1999/xlink" viewBox="0 0 261.09 245"><defs><style>.cls-1{fill:#fff;}.cls-1,.cls-2{fill-rule:evenodd;}.cls-2{fill:#5493f7;}.cls-3{mask:url(#mask);}</style><mask id="mask" x="68.44" y="21.35" width="192.65" height="156.73" maskUnits="userSpaceOnUse"><g id="b"><path id="a" class="cls-1" d="M68.44,21.35H261.09V178.08H68.44Z"/></g></mask></defs><title>Asset 1</title><g id="Layer_2" data-name="Layer 2"><g id="Layer_1-2" data-name="Layer 1"><path class="cls-2" d="M63,28.48C23.52,83,175.43,120.86,229.18,111.71c9.44-1.61,38.16-6.49,18.52-45.73q-4.6-8.16-9.7-16-6.24-8.14-13-15.84-2-2-4-4C210.53,20.56,188.7.66,132.77,0,99.66.72,76.19,10.3,63,28.48m51.2,170.69c7,26.44,32.14,46.63,44.82,45.81.45,0,48.14-9.11,74.24-53.64,20.32-34.66,13.4-68.11-14.24-68.84-9.94.74-118.16,26.27-104.82,76.67"/><path class="cls-1" d="M90.74,28.52C74.1,51.83,18.61,68.25,9.48,65.7l-.05-.11c.37-.7.74-1.4,1.13-2.09A122.62,122.62,0,0,1,21.37,47.28,128.12,128.12,0,0,1,34.65,32.87,134.29,134.29,0,0,1,60.73,14,41.52,41.52,0,0,1,79.07,9.43c24.72.43,11.81,18.9,11.67,19.09M84.31,204.84c1.24,7.59,0,37.6-1.7,40.14-1.44.07-4.43.24-13.1-4.28a140.39,140.39,0,0,1-13.14-8,136.53,136.53,0,0,1-16-12.83A132.42,132.42,0,0,1,26.56,205a126.84,126.84,0,0,1-11.19-16.81A123,123,0,0,1,7,169.75,120.59,120.59,0,0,1,8.47,84.81c9.93,12.3,21.41,23.42,31.18,35.85,9.29,11.83,22.08,31.12,24.69,35.24,16.16,25.58,18.74,41.36,20,48.94"/><g class="cls-3"><path class="cls-1" d="M261.09,126.27a128.59,128.59,0,0,1-9.18,47.87c-15.53,16.5-120.3-24.12-121.33-24.56-14.33-6.2-57.94-25.08-61.87-54.73C63,52.19,150.63,22.47,189.14,21.35c4.61,0,18.66.22,26.85,6.78a129.37,129.37,0,0,1,45.1,98.14"/></g><path class="cls-1" d="M190.91,242.63c-11.44,5.34-24,1.45-20.77-9.68,6.29-21.38,61.16-43.38,73.29-44.49l1.42.33a3.08,3.08,0,0,1,.05,1.7,132.74,132.74,0,0,1-54,52.14"/></g></g></svg>